# File created by Blade
# Date/Time:  Thu Jan 15 17:55:17 2015
#---------------------------------------------------------
:version 1.10
:name HOM
:units
  mass 1.0
  length 1.000000
  angle deg
:documentation
     Acclaim Skeleton File
:root
   axis xyz
   order TX TY TZ RX RY RZ
   position 0.000000 0.000000 0.000000
   orientation 0 0 0
:bonedata
   begin
      id 1
      name Spine_dum
      direction 0.000000 1.000000 0.000000
      length 5.015652
      axis 0.0 0.0 0.0 xyz
   end
   begin
      id 2
      name LeftUpLeg_dum
      direction 1.000000 0.000000 0.000000
      length 4.275145
      axis 0.0 0.0 0.0 xyz
   end
   begin
      id 3
      name RightUpLeg_dum
      direction -1.000000 0.000000 0.000000
      length 4.275145
      axis 0.0 0.0 0.0 xyz
   end
   begin
      id 4
      name Spine
      direction 0.000000 1.000000 0.000000
      length 0.000000
      axis 0.0 0.0 0.0 xyz
      dof rx ry rz
   end
   begin
      id 5
      name Spine_dum1
      direction 0.000000 1.000000 0.000000
      length 15.980521
      axis 0.0 0.0 0.0 xyz
   end
   begin
      id 6
      name Spine_dum2
      direction 0.000000 1.000000 0.000000
      length 12.162712
      axis 0.0 0.0 0.0 xyz
   end
   begin
      id 7
      name Spine_dum3
      direction 0.000000 1.000000 0.000000
      length 12.162712
      axis 0.0 0.0 0.0 xyz
   end
   begin
      id 8
      name Head
      direction 0.000000 1.000000 0.000000
      length 4.527550
      axis 0.0 0.0 0.0 xyz
      dof rx ry rz
   end
   begin
      id 9
      name LeftShoulder
      direction 1.000000 0.000000 0.000000
      length 7.205867
      axis 0.0 0.0 -90.0 xyz
      dof rx ry rz
   end
   begin
      id 10
      name LeftArm
      direction 1.000000 0.000000 0.000000
      length 10.786708
      axis 0.0 0.0 -90.0 xyz
      dof rx ry rz
   end
   begin
      id 11
      name LeftForeArm
      direction 1.000000 0.000000 0.000000
      length 7.946034
      axis 0.0 0.0 -90.0 xyz
      dof rz ry rx
   end
   begin
      id 12
      name LeftHand
      direction 0.000000 0.000000 0.000000
      length 0.000000
      axis 0.0 0.0 -90.0 xyz
      dof rx ry rz
   end
   begin
      id 13
      name LeftHand_dum1
      direction 0.000000 0.000000 0.000000
      length 0.000000
      axis 0.0 0.0 -90.0 xyz
   end
   begin
      id 14
      name LeftHand_dum2
      direction 1.000000 0.000000 0.000000
      length 3.937000
      axis 0.0 0.0 -90.0 xyz
   end
   begin
      id 15
      name LeftHandThumb1
      direction 0.000000 0.000000 1.000000
      length 3.937000
      axis 0.0 0.0 -90.0 xyz
      dof rx ry rz
   end
   begin
      id 16
      name RightShoulder
      direction -1.000000 0.000000 0.000000
      length 7.205867
      axis 0.0 0.0 90.0 xyz
      dof rx ry rz
   end
   begin
      id 17
      name RightArm
      direction -1.000000 0.000000 0.000000
      length 10.786708
      axis 0.0 0.0 90.0 xyz
      dof rx ry rz
   end
   begin
      id 18
      name RightForeArm
      direction -1.000000 0.000000 0.000000
      length 7.946034
      axis 0.0 0.0 90.0 xyz
      dof rz ry rx
   end
   begin
      id 19
      name RightHand
      direction 0.000000 0.000000 0.000000
      length 0.000000
      axis 0.0 0.0 90.0 xyz
      dof rx ry rz
   end
   begin
      id 20
      name RightHand_dum1
      direction 0.000000 0.000000 0.000000
      length 0.000000
      axis 0.0 0.0 90.0 xyz
   end
   begin
      id 21
      name RightHand_dum2
      direction -1.000000 0.000000 0.000000
      length 3.937000
      axis 0.0 0.0 90.0 xyz
   end
   begin
      id 22
      name RightHandThumb1
      direction 0.000000 0.000000 1.000000
      length 3.937000
      axis 0.0 0.0 90.0 xyz
      dof rx ry rz
   end
   begin
      id 23
      name LeftUpLeg
      direction 0.000000 -1.000000 0.000000
      length 17.046659
      axis 0.0 0.0 0.0 xyz
      dof rx ry rz
   end
   begin
      id 24
      name LeftLeg
      direction 0.000000 -1.000000 0.000000
      length 17.458438
      axis 0.0 0.0 0.0 xyz
      dof rx ry rz
   end
   begin
      id 25
      name LeftFoot
      direction 0.000000 -0.258819 0.965926
      length 5.099406
      axis 15.0 0.0 0.0 xyz
      dof rx ry rz
   end
   begin
      id 26
      name LeftToeBase
      direction 0.000000 0.000000 1.000000
      length 2.952750
      axis 0.0 0.0 0.0 xyz
      dof rx ry rz
   end
   begin
      id 27
      name RightUpLeg
      direction 0.000000 -1.000000 0.000000
      length 17.046659
      axis 0.0 0.0 0.0 xyz
      dof rx ry rz
   end
   begin
      id 28
      name RightLeg
      direction 0.000000 -1.000000 0.000000
      length 17.458438
      axis 0.0 0.0 0.0 xyz
      dof rx ry rz
   end
   begin
      id 29
      name RightFoot
      direction 0.000000 -0.258819 0.965926
      length 5.099406
      axis 15.0 0.0 0.0 xyz
      dof rx ry rz
   end
   begin
      id 30
      name RightToeBase
      direction 0.000000 0.000000 1.000000
      length 2.952750
      axis 0.0 0.0 0.0 xyz
      dof rx ry rz
   end
:hierarchy
   begin
      root Spine_dum LeftUpLeg_dum RightUpLeg_dum
      Spine_dum Spine
      LeftUpLeg_dum LeftUpLeg
      RightUpLeg_dum RightUpLeg
      Spine Spine_dum1 Spine_dum2 Spine_dum3
      Spine_dum1 Head
      Spine_dum2 LeftShoulder
      Spine_dum3 RightShoulder
      LeftShoulder LeftArm
      LeftArm LeftForeArm
      LeftForeArm LeftHand
      LeftHand LeftHand_dum1 LeftHand_dum2
      LeftHand_dum1 LeftHandThumb1
      RightShoulder RightArm
      RightArm RightForeArm
      RightForeArm RightHand
      RightHand RightHand_dum1 RightHand_dum2
      RightHand_dum1 RightHandThumb1
      LeftUpLeg LeftLeg
      LeftLeg LeftFoot
      LeftFoot LeftToeBase
      RightUpLeg RightLeg
      RightLeg RightFoot
      RightFoot RightToeBase
   end

# File created by Blade
# Date/Time:  Thu Jan 15 17:55:09 2015
# Frame Rate: 120.000 fps
#------------------------------------------------------
:FULLY-SPECIFIED
:DEGREES
1305
root 6.506603 34.395093 -22.253392 57.712169 0.221508 -0.691819
Spine 52.089386 -8.107150 -12.956472
Head -31.596619 20.578860 15.218191
LeftShoulder -17.098764 -21.388133 33.145070
LeftArm 75.393126 -6.412044 -66.557538
LeftForeArm 0.000000 28.054416 6.719286
LeftHand 4.331694 -0.000000 19.343513
LeftHandThumb1 -26.253704 33.147579 0.000000
RightShoulder 23.104668 49.593576 -17.697694
RightArm 54.059736 16.179607 81.416949
RightForeArm -0.000000 -54.267286 32.993884
RightHand -1.714078 -0.000000 -18.471893
RightHandThumb1 -24.326973 -32.862282 -0.000000
LeftUpLeg -70.912147 8.550682 4.715376
LeftLeg -0.458169 -0.000000 0.000000
LeftFoot -5.948889 15.009962 -15.816557
LeftToeBase 28.865562 -0.000000 -0.000000
RightUpLeg -68.326762 -5.972753 2.263794
RightLeg -8.020813 -0.000000 0.000000
RightFoot -0.670197 -39.232048 7.119687
RightToeBase 27.129407 -0.000000 -0.000000
1306
root 6.526819 34.400859 -22.240644 58.295123 -0.004169 -0.571927
Spine 52.522893 -7.950588 -13.381394
Head -31.567730 20.766487 15.307264
LeftShoulder -17.405332 -22.415100 34.084738
LeftArm 74.632584 -5.646388 -67.380274
LeftForeArm -0.000000 28.422560 6.878239
LeftHand 4.185451 -0.000000 19.371826
LeftHandThumb1 -26.253704 33.147579 0.000000
RightShoulder 23.138730 49.391449 -17.947336
RightArm 54.658571 15.913283 81.669624
RightForeArm -0.000000 -54.453235 32.603531
RightHand -1.511875 -0.000000 -18.501496
RightHandThumb1 -24.326973 -32.862282 -0.000000
LeftUpLeg -71.470492 8.545675 4.515172
LeftLeg -0.355163 -0.000000 0.000000
LeftFoot -5.996391 15.043558 -15.896755
LeftToeBase 28.584439 -0.000000 -0.000000
RightUpLeg -68.949697 -5.989276 2.135869
RightLeg -7.987776 -0.000000 0.000000
RightFoot -0.615224 -39.148853 7.105124
RightToeBase 27.293680 -0.000000 -0.000000
1307
root 6.533608 34.402946 -22.230120 58.855785 -0.094618 -0.554586
Spine 52.957332 -7.862295 -13.697335
Head -31.576866 20.992130 15.393015
LeftShoulder -17.860129 -23.411620 35.135193
LeftArm 73.701121 -4.864101 -68.254628
LeftForeArm -0.000000 28.826993 7.143345
LeftHand 4.009188 -0.000000 19.378591
LeftHandThumb1 -26.253704 33.147579 0.000000
RightShoulder 23.235009 49.182647 -18.248529
RightArm 55.252434 15.657043 81.939280
RightForeArm -0.000000 -54.630611 32.227940
RightHand -1.338351 0.000000 -18.617960
RightHandThumb1 -24.326973 -32.862282 -0.000000
LeftUpLeg -72.006047 8.535754 4.627543
LeftLeg -0.252484 -0.000000 0.000000
LeftFoot -6.167413 15.212382 -15.986305
LeftToeBase 28.651416 -0.000000 -0.000000
RightUpLeg -69.520373 -5.974062 2.205092
RightLeg -8.001405 -0.000000 0.000000
RightFoot -0.568428 -39.115768 7.132483
RightToeBase 27.442701 -0.000000 -0.000000
1308
root 6.545091 34.408342 -22.215987 59.393617 -0.206694 -0.495408
Spine 53.354944 -7.724345 -13.953911
Head -31.569725 21.138100 15.485197
LeftShoulder -18.167462 -24.415191 36.111509
LeftArm 72.776656 -4.134052 -69.158353
LeftForeArm -0.000000 29.201914 7.313586
LeftHand 4.005329 -0.000000 19.481504
LeftHandThumb1 -26.253704 33.147579 0.000000
RightShoulder 23.221772 48.816121 -18.514557
RightArm 55.975177 15.378062 82.147276
RightForeArm -0.000000 -54.697331 31.827139
RightHand -1.159561 -0.000000 -18.141416
RightHandThumb1 -24.326973 -32.862282 -0.000000
LeftUpLeg -72.528640 8.508150 4.624856
LeftLeg -0.136411 -0.000000 0.000000
LeftFoot -6.292180 15.313176 -16.114475
LeftToeBase 28.557018 -0.000000 -0.000000
RightUpLeg -70.068268 -5.982497 2.199553
RightLeg -7.971973 -0.000000 0.000000
RightFoot -0.494165 -38.976182 7.065186
RightToeBase 27.453710 -0.000000 -0.000000
1309
root 6.563713 34.415237 -22.198500 59.866066 -0.380135 -0.410423
Spine 53.787560 -7.585374 -14.288807
Head -31.566332 21.285128 15.575823
LeftShoulder -18.451528 -25.266374 36.979075
LeftArm 72.017883 -3.434751 -69.778235
LeftForeArm 0.000000 29.490134 7.379213
LeftHand 3.887249 -0.000000 19.452746
LeftHandThumb1 -26.253704 33.147579 0.000000
RightShoulder 23.239009 48.509009 -18.769310
RightArm 56.642058 15.115206 82.385569
RightForeArm -0.000000 -54.711941 31.262475
RightHand -0.822136 -0.000000 -17.992409
RightHandThumb1 -24.326973 -32.862282 -0.000000
LeftUpLeg -72.962331 8.473593 4.589668
LeftLeg -0.040896 -0.000000 0.000000
LeftFoot -6.486645 15.405713 -16.375886
LeftToeBase 28.701526 -0.000000 -0.000000
RightUpLeg -70.565243 -6.014144 2.157496
RightLeg -7.950724 -0.000000 0.000000
RightFoot -0.529480 -38.901416 7.177294
RightToeBase 27.650034 -0.000000 -0.000000
1310
root 6.578026 34.423058 -22.177484 60.309268 -0.542852 -0.324688
Spine 54.205228 -7.501965 -14.690871
Head -31.474154 21.653770 15.583930
LeftShoulder -18.779448 -25.964443 37.868592
LeftArm 71.230253 -2.765857 -70.371373
LeftForeArm 0.000000 29.707668 7.500153
LeftHand 3.765707 -0.000000 19.348431
LeftHandThumb1 -26.253704 33.147579 0.000000
RightShoulder 23.453134 48.215613 -18.844254
RightArm 57.293246 14.874650 82.644047
RightForeArm -0.000000 -55.022976 30.658799
RightHand -0.999955 -0.000000 -17.931951
RightHandThumb1 -24.326973 -32.862282 -0.000000
LeftUpLeg -73.365923 8.451476 4.487951
LeftLeg 0.036638 -0.000000 -0.000000
LeftFoot -6.581223 15.484736 -16.485174
LeftToeBase 28.560325 -0.000000 -0.000000
RightUpLeg -71.023918 -6.051500 2.143728
RightLeg -7.935244 -0.000000 0.000000
RightFoot -0.485061 -38.818596 7.137942
RightToeBase 27.631918 -0.000000 -0.000000
1311
root 6.592845 34.430562 -22.156046 60.806082 -0.671911 -0.292539
Spine 54.468536 -7.271992 -14.812080
Head -31.449399 21.681487 15.708591
LeftShoulder -18.892384 -26.875877 38.694457
LeftArm 70.324428 -2.073261 -71.067690
LeftForeArm -0.000000 30.058095 7.582516
LeftHand 3.559894 -0.000000 19.343431
LeftHandThumb1 -26.253704 33.147579 0.000000
RightShoulder 23.305338 47.785260 -19.085098
RightArm 57.967283 14.567835 82.894018
RightForeArm -0.000000 -55.078592 30.007004
RightHand -0.899228 -0.000000 -17.787997
RightHandThumb1 -24.326973 -32.862282 -0.000000
LeftUpLeg -73.836674 8.474337 4.401376
LeftLeg 0.124967 -0.000000 -0.000000
LeftFoot -6.669433 15.571311 -16.534215
LeftToeBase 28.255136 -0.000000 -0.000000
RightUpLeg -71.512555 -6.057575 2.221052
RightLeg -7.952476 -0.000000 0.000000
RightFoot -0.469352 -38.679583 7.271825
RightToeBase 27.607371 -0.000000 -0.000000
1312
root 6.606143 34.439343 -22.131624 61.204594 -0.826004 -0.219937
Spine 54.799639 -7.101499 -15.057438
Head -31.368450 21.820237 15.830996
LeftShoulder -19.017549 -27.537999 39.382716
LeftArm 69.675746 -1.420052 -71.474330
LeftForeArm -0.000000 30.232985 7.485726
LeftHand 3.484094 -0.000000 19.190925
LeftHandThumb1 -26.253704 33.147579 0.000000
RightShoulder 23.308367 47.303968 -19.242705
RightArm 58.722778 14.260853 83.092411
RightForeArm -0.000000 -55.069189 29.254442
RightHand -1.058270 -0.000000 -17.604952
RightHandThumb1 -24.326973 -32.862282 -0.000000
LeftUpLeg -74.184939 8.465226 4.301600
LeftLeg 0.201659 -0.000000 -0.000000
LeftFoot -6.790799 15.537464 -16.634412
LeftToeBase 28.398121 -0.000000 -0.000000
RightUpLeg -71.904474 -6.069084 2.157227
RightLeg -7.943953 -0.000000 0.000000
RightFoot -0.482321 -38.610052 7.379021
RightToeBase 27.675432 -0.000000 -0.000000
1313
root 6.626616 34.448326 -22.101907 61.560902 -1.017111 -0.134539
Spine 55.125967 -6.891856 -15.260092
Head -31.345434 21.875922 15.925619
LeftShoulder -19.023625 -28.124993 39.835952
LeftArm 69.216510 -0.767289 -71.664941
LeftForeArm -0.000000 30.438329 7.337020
LeftHand 3.441981 -0.000000 19.107333
LeftHandThumb1 -26.253704 33.147579 0.000000
RightShoulder 23.196145 46.749880 -19.421563
RightArm 59.539733 13.930869 83.306197
RightForeArm -0.000000 -55.073870 28.418277
RightHand -0.734380 -0.000000 -17.279638
RightHandThumb1 -24.326973 -32.862282 -0.000000
LeftUpLeg -74.480007 8.461925 4.094393
LeftLeg 0.262447 -0.000000 -0.000000
LeftFoot -6.859668 15.496374 -16.683856
LeftToeBase 28.156780 -0.000000 -0.000000
RightUpLeg -72.244697 -6.098755 2.087924
RightLeg -7.947250 -0.000000 0.000000
RightFoot -0.465371 -38.488083 7.401636
RightToeBase 27.768325 -0.000000 -0.000000
1314
root 6.639614 34.456630 -22.075447 61.893576 -1.133996 -0.088394
Spine 55.405809 -6.655933 -15.313001
Head -31.304084 21.871468 15.991186
LeftShoulder -18.944218 -28.678089 40.256074
LeftArm 68.763704 -0.127863 -71.821734
LeftForeArm 0.000000 30.502285 7.184030
LeftHand 3.357464 -0.000000 18.857004
LeftHandThumb1 -26.253704 33.147579 0.000000
RightShoulder 23.000715 46.131043 -19.650690
RightArm 60.362731 13.598544 83.491345
RightForeArm -0.000000 -54.973959 27.581326
RightHand -1.051776 -0.000000 -16.746128
RightHandThumb1 -24.326973 -32.862282 -0.000000
LeftUpLeg -74.760274 8.467925 4.010112
LeftLeg 0.298071 -0.000000 -0.000000
LeftFoot -7.003526 15.531177 -16.638925
LeftToeBase 28.499780 -0.000000 -0.000000
RightUpLeg -72.547742 -6.117568 2.060601
RightLeg -7.968054 -0.000000 0.000000
RightFoot -0.367062 -38.378052 7.366320
RightToeBase 27.809931 -0.000000 -0.000000
1315
root 6.650745 34.464246 -22.045302 62.289348 -1.214709 -0.054347
Spine 55.610933 -6.523823 -15.341479
Head -31.396438 21.871423 15.947218
LeftShoulder -19.167833 -29.700205 40.986996
LeftArm 67.647456 0.520792 -72.773479
LeftForeArm 0.000000 31.192508 7.133594
LeftHand 3.355920 -0.000000 18.718129
LeftHandThumb1 -26.253704 33.147579 0.000000
RightShoulder 23.170657 47.127099 -19.230605
RightArm 59.536572 12.908742 83.644975
RightForeArm -0.000000 -54.953483 26.572497
RightHand -0.877097 0.000000 -16.170852
RightHandThumb1 -24.326973 -32.862282 -0.000000
LeftUpLeg -75.077975 8.456445 3.972100
LeftLeg 0.304271 -0.000000 -0.000000
LeftFoot -7.088971 15.569819 -16.769772
LeftToeBase 28.202797 -0.000000 -0.000000
RightUpLeg -72.892874 -6.139866 2.110270
RightLeg -8.020875 -0.000000 0.000000
RightFoot -0.323496 -38.288942 7.383381
RightToeBase 27.917189 -0.000000 -0.000000
1316
root 6.663742 34.471826 -22.016806 62.616518 -1.316066 -0.002769
Spine 55.821879 -6.378591 -15.334648
Head -31.482756 21.896836 15.827447
LeftShoulder -19.160880 -30.322915 41.254859
LeftArm 67.120454 1.154105 -72.996979
LeftForeArm -0.000000 31.649360 6.997307
LeftHand 3.228022 -0.000000 18.302013
LeftHandThumb1 -26.253704 33.147579 0.000000
RightShoulder 23.262834 47.968452 -18.926475
RightArm 58.805513 12.195167 83.701828
RightForeArm -0.000000 -54.890483 25.539315
RightHand -1.033596 -0.000000 -15.807458
RightHandThumb1 -24.326973 -32.862282 -0.000000
LeftUpLeg -75.342366 8.462970 3.828309
LeftLeg 0.299275 -0.000000 -0.000000
LeftFoot -7.198960 15.506819 -16.918916
LeftToeBase 28.433703 -0.000000 -0.000000
RightUpLeg -73.178521 -6.164423 2.089779
RightLeg -8.056947 -0.000000 0.000000
RightFoot -0.279064 -38.210777 7.395277
RightToeBase 27.992583 -0.000000 -0.000000
